<svg xmlns="http://www.w3.org/2000/svg" xmlns:xlink="http://www.w3.org/1999/xlink" width="32" height="32" viewBox="0 0 32 32" fill="none">
<g opacity="0.9">
<path d="M26.93 15.995C26.93 16.5114 26.5121 16.93 25.9966 16.93L5.99341 16.93C5.47793 16.93 5.06 16.5114 5.06 15.995C5.06 15.4786 5.47793 15.06 5.99341 15.06L25.9966 15.06C26.5121 15.06 26.93 15.4786 26.93 15.995Z"   fill="#FFFFFF" >
</path>
<path d="M11.7488 21.7535L12.0056 22.0263L11.3263 22.6667L10.647 23.3069L10.388 23.0318C10.2234 22.8569 9.98842 22.6065 9.70651 22.3054C9.14287 21.703 8.39073 20.8964 7.6382 20.0795C6.88669 19.2639 6.13054 18.4338 5.56068 17.7864C5.27689 17.4641 5.03205 17.1788 4.85537 16.9602C4.76848 16.8527 4.68742 16.7483 4.62415 16.6572C4.59369 16.6133 4.55497 16.5549 4.52003 16.4905C4.50271 16.4586 4.47737 16.4089 4.45423 16.3475C4.43692 16.3016 4.39001 16.1713 4.39001 16C4.39001 15.8287 4.43692 15.6984 4.45423 15.6524C4.47737 15.5911 4.50271 15.5414 4.52003 15.5095C4.55497 15.445 4.59369 15.3865 4.62415 15.3427C4.68742 15.2517 4.76848 15.1471 4.85537 15.0397C5.03205 14.8211 5.27689 14.5359 5.56068 14.2135C6.13054 13.5662 6.88669 12.7361 7.6382 11.9205C8.39073 11.1036 9.14287 10.297 9.70651 9.69458C9.98842 9.39331 10.2234 9.14312 10.388 8.96817L10.6469 8.69305L11.3263 9.33327L12.0056 9.97365L11.7488 10.2465C11.5851 10.4205 11.351 10.6698 11.0702 10.9699C10.5085 11.5701 9.75995 12.3731 9.01183 13.185C8.26268 13.998 7.51818 14.8156 6.96264 15.4467C6.77714 15.6574 6.61597 15.8436 6.48414 16C6.61597 16.1562 6.77714 16.3426 6.96264 16.5533C7.51818 17.1844 8.26268 18.002 9.01183 18.815C9.75995 19.6269 10.5085 20.4299 11.0702 21.0301C11.351 21.3302 11.5851 21.5793 11.7488 21.7535ZM11.3263 9.33327L12.0056 9.97365C12.3593 9.59867 12.3421 9.00784 11.9669 8.65429C11.5917 8.30059 11.0007 8.31807 10.6469 8.69305L11.3263 9.33327ZM11.3263 22.6667L12.0056 22.0263C12.3594 22.4013 12.3421 22.992 11.9669 23.3457C11.5917 23.6994 11.0007 23.6821 10.647 23.3069L11.3263 22.6667Z" fill-rule="evenodd"  fill="#FFFFFF" >
</path>
</g>
</svg>
