<svg xmlns="http://www.w3.org/2000/svg" xmlns:xlink="http://www.w3.org/1999/xlink" width="15.92999267578125" height="15.92999267578125" viewBox="0 0 15.92999267578125 15.92999267578125" fill="none">
<path   fill="rgba(34, 38, 40, 1)"  d="M1 7.965C1 11.8117 4.11834 14.93 7.965 14.93L7.965 15.43L7.965 14.93C11.8117 14.93 14.93 11.8117 14.93 7.965L15.43 7.965L14.93 7.965C14.93 4.11834 11.8117 1 7.965 1L7.965 0C12.3639 0 15.93 3.56605 15.93 7.965L15.93 7.965C15.93 12.3639 12.3639 15.93 7.965 15.93L7.965 15.93C3.56605 15.93 0 12.3639 0 7.965L1 7.965ZM0 7.965C0 3.56605 3.56605 0 7.965 0L7.965 1C4.11834 1 1 4.11834 1 7.965L0 7.965Z">
</path>
</svg>
