<svg t="1753107626694" class="icon" viewBox="0 0 1024 1024" version="1.1" xmlns="http://www.w3.org/2000/svg" p-id="6081" width="200" height="200"><path d="M512 960H136c-39.765 0-72-32.235-72-72V512C64 264.576 264.576 64 512 64s448 200.576 448 448-200.576 448-448 448z m0-72c207.66 0 376-168.34 376-376S719.66 136 512 136 136 304.34 136 512v376h376zM280 564c-28.719 0-52-23.281-52-52s23.281-52 52-52 52 23.281 52 52-23.281 52-52 52z m232 0c-28.719 0-52-23.281-52-52s23.281-52 52-52 52 23.281 52 52-23.281 52-52 52z m232 0c-28.719 0-52-23.281-52-52s23.281-52 52-52 52 23.281 52 52-23.281 52-52 52z" fill="#41416E" p-id="6082"></path></svg>