<svg xmlns="http://www.w3.org/2000/svg" xmlns:xlink="http://www.w3.org/1999/xlink" width="46" height="46" viewBox="0 0 46 46" fill="none">
<path     fill="#170B1A"  d="M0 23Q0 22.4354 0.0277045 21.8714Q0.055409 21.3075 0.110751 20.7456Q0.166094 20.1837 0.24894 19.6252Q0.331787 19.0667 0.441938 18.5129Q0.55209 17.9592 0.689281 17.4115Q0.826472 16.8638 0.990372 16.3235Q1.15427 15.7831 1.34449 15.2515Q1.5347 14.7199 1.75077 14.1983Q1.96684 13.6766 2.20825 13.1662Q2.44965 12.6558 2.71581 12.1579Q2.98197 11.6599 3.27224 11.1756Q3.56251 10.6913 3.8762 10.2219Q4.18988 9.75242 4.52623 9.29891Q4.86257 8.84541 5.22076 8.40895Q5.57895 7.9725 5.95812 7.55414Q6.3373 7.13579 6.73654 6.73654Q7.13579 6.3373 7.55414 5.95812Q7.9725 5.57895 8.40895 5.22076Q8.84541 4.86257 9.29891 4.52623Q9.75242 4.18988 10.2219 3.8762Q10.6913 3.56251 11.1756 3.27224Q11.6599 2.98197 12.1579 2.71581Q12.6558 2.44965 13.1662 2.20825Q13.6766 1.96684 14.1983 1.75077Q14.7199 1.5347 15.2515 1.34449Q15.7831 1.15427 16.3235 0.990372Q16.8638 0.826472 17.4115 0.689281Q17.9592 0.55209 18.5129 0.441938Q19.0667 0.331787 19.6252 0.24894Q20.1837 0.166094 20.7456 0.110751Q21.3075 0.055409 21.8714 0.0277045Q22.4354 0 23 0Q23.5646 0 24.1286 0.0277045Q24.6925 0.055409 25.2544 0.110751Q25.8163 0.166094 26.3748 0.24894Q26.9333 0.331787 27.4871 0.441938Q28.0408 0.55209 28.5885 0.689281Q29.1362 0.826472 29.6765 0.990372Q30.2169 1.15427 30.7485 1.34449Q31.2801 1.5347 31.8017 1.75077Q32.3234 1.96684 32.8338 2.20825Q33.3442 2.44965 33.8421 2.71581Q34.3401 2.98197 34.8244 3.27224Q35.3087 3.56251 35.7781 3.8762Q36.2476 4.18988 36.7011 4.52623Q37.1546 4.86257 37.591 5.22076Q38.0275 5.57895 38.4459 5.95812Q38.8642 6.3373 39.2635 6.73654Q39.6627 7.13579 40.0419 7.55414Q40.4211 7.9725 40.7792 8.40895Q41.1374 8.84541 41.4738 9.29891Q41.8101 9.75242 42.1238 10.2219Q42.4375 10.6913 42.7278 11.1756Q43.018 11.6599 43.2842 12.1579Q43.5504 12.6558 43.7918 13.1662Q44.0332 13.6766 44.2492 14.1983Q44.4653 14.7199 44.6555 15.2515Q44.8457 15.7831 45.0096 16.3235Q45.1735 16.8638 45.3107 17.4115Q45.4479 17.9592 45.5581 18.5129Q45.6682 19.0667 45.7511 19.6252Q45.8339 20.1837 45.8893 20.7456Q45.9446 21.3075 45.9723 21.8714Q46 22.4354 46 23Q46 23.5646 45.9723 24.1286Q45.9446 24.6925 45.8893 25.2544Q45.8339 25.8163 45.7511 26.3748Q45.6682 26.9333 45.5581 27.4871Q45.4479 28.0408 45.3107 28.5885Q45.1735 29.1362 45.0096 29.6765Q44.8457 30.2169 44.6555 30.7485Q44.4653 31.2801 44.2492 31.8017Q44.0332 32.3234 43.7918 32.8338Q43.5503 33.3442 43.2842 33.8421Q43.018 34.3401 42.7278 34.8244Q42.4375 35.3087 42.1238 35.7781Q41.8101 36.2476 41.4738 36.7011Q41.1374 37.1546 40.7792 37.591Q40.421 38.0275 40.0419 38.4459Q39.6627 38.8642 39.2635 39.2635Q38.8642 39.6627 38.4459 40.0419Q38.0275 40.4211 37.591 40.7792Q37.1546 41.1374 36.7011 41.4738Q36.2476 41.8101 35.7781 42.1238Q35.3087 42.4375 34.8244 42.7278Q34.3401 43.018 33.8421 43.2842Q33.3442 43.5504 32.8338 43.7918Q32.3234 44.0332 31.8017 44.2492Q31.2801 44.4653 30.7485 44.6555Q30.2169 44.8457 29.6765 45.0096Q29.1362 45.1735 28.5885 45.3107Q28.0408 45.4479 27.4871 45.5581Q26.9333 45.6682 26.3748 45.7511Q25.8163 45.8339 25.2544 45.8893Q24.6925 45.9446 24.1286 45.9723Q23.5646 46 23 46Q22.4354 46 21.8714 45.9723Q21.3075 45.9446 20.7456 45.8893Q20.1837 45.8339 19.6252 45.7511Q19.0667 45.6682 18.5129 45.5581Q17.9592 45.4479 17.4115 45.3107Q16.8638 45.1735 16.3235 45.0096Q15.7831 44.8457 15.2515 44.6555Q14.7199 44.4653 14.1983 44.2492Q13.6766 44.0332 13.1662 43.7918Q12.6558 43.5503 12.1579 43.2842Q11.6599 43.018 11.1756 42.7278Q10.6913 42.4375 10.2219 42.1238Q9.75242 41.8101 9.29891 41.4738Q8.84541 41.1374 8.40895 40.7792Q7.9725 40.421 7.55414 40.0419Q7.13579 39.6627 6.73654 39.2635Q6.3373 38.8642 5.95812 38.4459Q5.57895 38.0275 5.22076 37.591Q4.86257 37.1546 4.52623 36.7011Q4.18988 36.2476 3.8762 35.7781Q3.56251 35.3087 3.27224 34.8244Q2.98197 34.3401 2.71581 33.8421Q2.44965 33.3442 2.20825 32.8338Q1.96684 32.3234 1.75077 31.8017Q1.5347 31.2801 1.34449 30.7485Q1.15427 30.2169 0.990372 29.6765Q0.826472 29.1362 0.689281 28.5885Q0.55209 28.0408 0.441938 27.4871Q0.331787 26.9333 0.24894 26.3748Q0.166094 25.8163 0.110751 25.2544Q0.055409 24.6925 0.0277045 24.1286Q0 23.5646 0 23Z">
</path>
<path   fill-rule="evenodd"  fill="#25F4EE"  d="M22.7779 15.3639C22.7986 13.0712 22.7779 10.7762 22.7986 8.48242L27.4664 8.48242C27.4458 8.88822 27.5066 9.29517 27.5673 9.68034L24.1329 9.68034L24.1329 28.3152C24.15 29.1097 23.9549 29.8944 23.5678 30.5884C22.9465 31.657 21.8477 32.3601 20.6171 32.4764C19.8396 32.5464 19.0589 32.384 18.3738 32.0098C17.8508 31.7242 17.4011 31.3212 17.0601 30.8325C18.2522 31.502 19.809 31.4412 20.961 30.6904C22.073 30.0003 22.7997 28.7015 22.7997 27.3614C22.7791 23.3619 22.7791 19.3634 22.7791 15.3639L22.7779 15.3639ZM30.4778 14.0456C31.1285 14.4621 31.8458 14.7637 32.5986 14.9374C33.0445 15.0395 33.4881 15.0796 33.9535 15.0796L33.9535 16.1354C32.6054 15.8174 31.3903 15.0864 30.4778 14.0444L30.4778 14.0456Z">
</path>
<path d="M14.3545 19.9814C16.0466 18.9336 18.0527 18.5129 20.0231 18.7926L20.0231 19.9011C19.4958 19.9218 18.9914 19.9814 18.4641 20.0822C17.2047 20.3418 16.0166 20.8714 14.9815 21.6344C13.8696 22.462 13.0179 23.59 12.431 24.8407C11.8632 26.0364 11.5791 27.3471 11.601 28.6706C11.601 30.123 12.0057 31.5341 12.6946 32.8043C13.0179 33.3889 13.3824 33.9529 13.8685 34.4172C12.8728 33.719 12.0431 32.8103 11.4382 31.7554C10.6094 30.3649 10.2048 28.7313 10.2449 27.099C10.3012 25.5955 10.7403 24.1312 11.5208 22.8449C12.2233 21.6779 13.1949 20.6961 14.3545 19.9814Z"   fill="#25F4EE" >
</path>
<path d="M24.1065 9.66772L27.5684 9.66772C27.69 10.3383 27.933 10.9677 28.2356 11.5764C28.7216 12.5106 29.4106 13.3429 30.3013 13.892C30.362 13.9321 30.4022 13.9722 30.4423 14.033C31.3612 15.0805 32.5864 15.8125 33.9443 16.125C33.965 17.3424 33.9443 18.5816 33.9443 19.799C31.6363 19.8118 29.3834 19.0944 27.5077 17.7494C27.5077 20.6726 27.5077 23.5957 27.5272 26.5189C27.5272 26.9052 27.5478 27.2915 27.5272 27.6973C27.4172 29.1273 26.9887 30.5147 26.2731 31.7576C25.6662 32.8391 24.8381 33.7805 23.8429 34.5203C22.5569 35.4707 21.0097 36.0022 19.4112 36.0426C18.6007 36.0621 17.7914 36.022 17.0016 35.8386C15.8901 35.5934 14.838 35.1314 13.9053 34.479L13.8446 34.4183C13.378 33.9506 12.994 33.382 12.6696 32.7939C11.9818 31.5352 11.5772 30.0932 11.5772 28.6316C11.5572 27.2994 11.841 25.9802 12.4071 24.7741C12.994 23.5155 13.8641 22.3783 14.9577 21.5461C15.9908 20.7782 17.1788 20.2447 18.4391 19.9825C18.9531 19.8802 19.4744 19.8188 19.9981 19.799C20.0176 20.2668 19.9981 20.7333 20.0176 21.1804L20.0176 23.5556C19.4307 23.3527 18.783 23.3527 18.1754 23.4948C17.4444 23.6519 16.7633 23.9866 16.1923 24.4692C15.843 24.7708 15.5543 25.1361 15.3417 25.5456C14.9772 26.2357 14.8557 27.0473 14.937 27.8188C15.0173 28.5708 15.3417 29.301 15.8277 29.8708C16.1522 30.2766 16.5763 30.5815 17.0016 30.8646C17.3455 31.3518 17.7914 31.7588 18.3176 32.0419C19.0072 32.4071 19.7863 32.5693 20.5644 32.5096C21.7795 32.4282 22.9121 31.6774 23.5196 30.6216C23.9079 29.9276 24.1038 29.1424 24.087 28.3473C24.1272 22.094 24.1065 15.8809 24.1065 9.66772Z"   fill="#FFFFFF" >
</path>
<path   fill-rule="evenodd"  fill="#FE2C55"  d="M27.5675 9.66772C27.9721 9.68836 28.3756 9.66772 28.8009 9.66772C28.8009 11.0284 29.2251 12.3891 30.0126 13.5057C30.1135 13.6478 30.2155 13.7693 30.3164 13.892C29.4268 13.3429 28.7195 12.5106 28.2553 11.5764C27.9425 10.9734 27.7112 10.3316 27.5675 9.66772ZM33.933 16.125C34.3778 16.2271 34.8226 16.2672 35.2868 16.2672L35.2868 20.9981C32.9827 21.0187 30.6797 20.2473 28.8009 18.8866L28.8009 28.267C28.8246 28.9767 28.7564 29.6864 28.598 30.3786C28.1457 32.4975 26.921 34.3723 25.1625 35.638C24.2422 36.3009 23.1971 36.7705 22.0903 37.0182C20.7581 37.323 19.372 37.3022 18.0495 36.9574C16.473 36.5421 15.049 35.6826 13.9468 34.4813C14.8765 35.1508 15.9276 35.5967 17.0396 35.8409C17.8271 36.0243 18.6353 36.0644 19.4434 36.0438C21.0403 36.0032 22.5859 35.4712 23.8694 34.5203C24.8598 33.7901 25.6691 32.8352 26.295 31.7599C27.0101 30.5164 27.4381 29.1287 27.548 27.6985C27.5682 27.3063 27.5682 26.9133 27.548 26.5212C27.5273 23.598 27.5273 20.6737 27.5273 17.7494C29.399 19.0946 31.6487 19.8126 33.9537 19.8002C33.933 18.5816 33.9537 17.3436 33.933 16.125Z">
</path>
<path d="M20.0106 19.7454C20.4531 19.7454 20.9151 19.766 21.3564 19.8256L21.3564 24.6528C20.7013 24.4347 19.9977 24.4069 19.3274 24.5726C18.0618 24.8557 16.9969 25.8244 16.5556 27.0567C16.1131 28.2684 16.2942 29.6818 17.0577 30.7124C16.6121 30.4559 16.217 30.1202 15.8918 29.7219C15.402 29.1447 15.0947 28.4348 15.0092 27.6826C14.9278 26.9145 15.0481 26.1075 15.4104 25.4209C15.611 25.0174 15.9125 24.6528 16.2541 24.3502C16.8158 23.8653 17.5196 23.5627 18.2223 23.3804C18.8253 23.2394 19.4684 23.2394 20.0507 23.4412L20.0507 21.0797C20.0106 20.6762 20.0312 20.2108 20.0106 19.7465L20.0106 19.7454Z"   fill="#FE2C55" >
</path>
</svg>
