<svg xmlns="http://www.w3.org/2000/svg" xmlns:xlink="http://www.w3.org/1999/xlink" width="24" height="24" viewBox="0 0 24 24" fill="none">
<path d="M22 16C22 18.757 19.757 21 17 21L7 21C4.243 21 2 18.757 2 16L2 12C2 11.4479 2.447 10.9999 3 10.9999C3.553 10.9999 4 11.4479 4 12L4 16C4 17.654 5.346 19 7 19L17 19C18.654 19 20 17.654 20 16L20 12C20 11.4479 20.447 10.9999 21 10.9999C21.553 10.9999 22 11.4479 22 12L22 16ZM16.707 10.7071C17.098 10.3159 17.098 9.68394 16.707 9.29298C16.316 8.90202 15.684 8.90202 15.293 9.29298L13 11.586L13 4.00008C13 3.44802 12.553 3 12 3C11.447 3 11 3.44802 11 4.00008L11 11.586L8.707 9.29298C8.316 8.90202 7.684 8.90202 7.293 9.29298C7.098 9.48792 7 9.74406 7 10C7 10.256 7.098 10.5119 7.293 10.7071L11.292 14.7059C11.385 14.799 11.495 14.8721 11.618 14.923C11.862 15.024 12.138 15.024 12.382 14.923C12.505 14.8721 12.615 14.799 12.708 14.7059L16.707 10.7071Z" fill-rule="evenodd"  fill="#41416E" >
</path>
</svg>
