<svg t="1753600679673" class="icon" viewBox="0 0 1024 1024" version="1.1" xmlns="http://www.w3.org/2000/svg" p-id="19289" width="200" height="200"><path d="M902.144 496.896c-1.408-0.064-2.816-0.064-4.16-0.128-4.352-18.432-17.216-33.664-34.176-41.344-37.568-159.488-180.928-278.592-351.68-278.592-171.072 0-314.624 119.488-351.872 279.424a60.9024 60.9024 0 0 0-32.448 40.512c-1.408 0.064-2.816 0.064-4.16 0.128C55.552 501.76 1.792 558.528 1.792 627.904c0 69.312 53.76 126.08 121.856 131.008 1.408 0.064 2.816 0.064 4.16 0.128 6.336 26.688 30.4 46.72 58.944 46.72h10.944c33.344 0 60.608-27.264 60.608-60.608V510.656c0-26.368-17.088-48.896-40.704-57.152 36.864-127.872 154.88-221.76 294.464-221.76 139.776 0 257.92 94.08 294.592 222.272-22.912 8.704-39.296 30.848-39.296 56.64v234.432c0 33.344 27.264 60.608 60.608 60.608h10.944c28.544 0 52.608-20.032 58.944-46.72 1.408-0.064 2.816-0.064 4.16-0.128 68.096-4.864 121.856-61.696 121.856-131.008 0.128-69.312-53.632-126.08-121.728-130.944z" fill="#41416E" p-id="19290"></path></svg>