<svg xmlns="http://www.w3.org/2000/svg" xmlns:xlink="http://www.w3.org/1999/xlink" width="24" height="24" viewBox="0 0 24 24" fill="none">
<g opacity="0.9">
<path d="M2.8038 5C2 6.3924 2 8.2616 2 12C2 15.7384 2 17.6076 2.8038 19C3.3304 19.9122 4.0878 20.6696 5 21.1962C6.3924 22 8.2616 22 12 22C15.7384 22 17.6076 22 19 21.1962C19.9122 20.6696 20.6696 19.9122 21.1962 19C22 17.6076 22 15.7384 22 12C22 8.2616 22 6.3924 21.1962 5C20.6696 4.0878 19.9122 3.3304 19 2.8038C17.6076 2 15.7384 2 12 2C8.2616 2 6.3924 2 5 2.8038C4.0878 3.3304 3.3304 4.0878 2.8038 5ZM5.7 4.0162C5.0008 4.42 4.42 5.0008 4.0162 5.7C3.7578 6.1476 3.5864 6.735 3.4948 7.7466C3.4014 8.7774 3.4 10.105 3.4 12C3.4 13.895 3.4014 15.2226 3.4948 16.2534C3.5864 17.265 3.7578 17.8524 4.0162 18.3C4.42 18.9992 5.0008 19.58 5.7 19.9838C6.1476 20.2422 6.735 20.4136 7.7466 20.5052C8.7774 20.5986 10.105 20.6 12 20.6C13.895 20.6 15.2226 20.5986 16.2534 20.5052C17.265 20.4136 17.8524 20.2422 18.3 19.9838C18.9992 19.58 19.58 18.9992 19.9838 18.3C20.2422 17.8524 20.4136 17.265 20.5052 16.2534C20.5986 15.2226 20.6 13.895 20.6 12C20.6 10.105 20.5986 8.7774 20.5052 7.7466C20.4136 6.735 20.2422 6.1476 19.9838 5.7C19.58 5.0008 18.9992 4.42 18.3 4.0162C17.8524 3.7578 17.265 3.5864 16.2534 3.4948C15.2226 3.4014 13.895 3.4 12 3.4C10.105 3.4 8.7774 3.4014 7.7466 3.4948C6.735 3.5864 6.1476 3.7578 5.7 4.0162Z" fill-rule="evenodd"  fill="#222628" >
</path>
<path d="M15.6344 11.7036C15.5051 11.0741 14.7807 10.6216 13.3318 9.71641L13.1261 9.58793C11.5174 8.583 10.713 8.08045 10.0615 8.27702C9.85689 8.33877 9.66786 8.44351 9.50705 8.58428C8.995 9.03223 8.995 9.98031 8.995 11.8765L8.995 12.1335C8.995 14.0297 8.995 14.9778 9.50705 15.4258C9.66786 15.5665 9.85689 15.6713 10.0615 15.733C10.713 15.9296 11.5174 15.4271 13.1261 14.4221L13.3318 14.2936C14.7807 13.3885 15.5051 12.9359 15.6344 12.3065C15.6752 12.1076 15.6752 11.9025 15.6344 11.7036ZM10.4759 14.332C10.5194 14.3153 10.5737 14.2924 10.6404 14.2611C11.0293 14.0789 11.548 13.7577 12.3841 13.2354L12.5897 13.1069C13.3454 12.6348 13.8021 12.3467 14.0991 12.1073C14.1496 12.0666 14.1886 12.0325 14.2183 12.005C14.1886 11.9775 14.1496 11.9435 14.0991 11.9028C13.8021 11.6633 13.3454 11.3752 12.5897 10.9031L12.3841 10.7746C11.548 10.2524 11.0293 9.93115 10.6404 9.74891C10.5737 9.71762 10.5194 9.69477 10.4759 9.67803C10.4671 9.72365 10.4578 9.78186 10.4489 9.85499C10.3975 10.2812 10.395 10.8911 10.395 11.8765L10.395 12.1335C10.395 13.119 10.3975 13.7289 10.4489 14.1551C10.4578 14.2282 10.4671 14.2864 10.4759 14.332Z" fill-rule="evenodd"  fill="#222628" >
</path>
</g>
</svg>
