<svg xmlns="http://www.w3.org/2000/svg" xmlns:xlink="http://www.w3.org/1999/xlink" width="24" height="24" viewBox="0 0 24 24" fill="none">
<path d="M11.4822 18.857C9.5428 17.709 4.94 14.574 4.1018 10.2741C3.7876 8.66311 4.2128 6.95596 5.241 5.70899C6.1492 4.60604 7.4034 3.99994 8.7726 3.99994C9.7428 3.99994 10.673 4.26708 11.4622 4.77096C11.7902 4.97996 12.2102 4.97996 12.5384 4.77096C13.3284 4.26708 14.2576 3.99994 15.2278 3.99994C16.5982 3.99994 17.8524 4.60604 18.7596 5.70899C19.7878 6.95596 20.2138 8.66311 19.8988 10.2741C19.0596 14.574 14.4578 17.709 12.5184 18.857C12.1992 19.0451 11.8012 19.0451 11.4822 18.857ZM15.2288 2C14.0886 2 12.9854 2.26695 12.0002 2.77501C11.016 2.26695 9.9118 2 8.7716 2C6.7932 2 4.991 2.86602 3.6956 4.43808C2.2924 6.14105 1.7104 8.46589 2.1374 10.6579C3.1316 15.753 8.2906 19.294 10.463 20.5799C10.937 20.859 11.4682 21 11.9992 21C12.5304 21 13.0624 20.859 13.5366 20.579C15.709 19.294 20.868 15.753 21.862 10.6579C22.2902 8.46589 21.708 6.14105 20.3048 4.43808C19.0096 2.86602 17.2072 2 15.2288 2Z" fill-rule="evenodd"  fill="#41416E" >
</path>
</svg>
