<svg t="1753590285302" class="icon" viewBox="0 0 1024 1024" version="1.1" xmlns="http://www.w3.org/2000/svg" p-id="16766" width="200" height="200"><path d="M494.933333 314.845867c0-14.830933 10.24-24.712533 25.6-24.712534s25.6 9.898667 25.6 24.712534v394.308266C546.133333 723.968 535.893333 733.866667 520.533333 733.866667s-25.6-9.898667-25.6-24.712534V314.845867z m85.333334 101.649066c0-14.370133 10.24-23.9616 25.6-23.9616s25.6 9.591467 25.6 23.9616v191.010134c0 14.370133-10.24 23.9616-25.6 23.9616s-25.6-9.591467-25.6-23.9616V416.494933z m102.4 35.822934c0-15.394133 10.24-25.6512 25.6-25.6512s25.6 10.257067 25.6 25.6512v153.4976c0 15.394133-10.24 25.6512-25.6 25.6512s-25.6-10.257067-25.6-25.6512v-153.4976z m-290.133334 15.36c0-14.353067 10.24-23.944533 25.6-23.944534s25.6 9.591467 25.6 23.9616v191.010134c0 14.370133-10.24 23.9616-25.6 23.9616s-25.6-9.591467-25.6-23.9616V467.694933z m-102.4-15.36c0-15.394133 10.24-25.6512 25.6-25.6512s25.6 10.257067 25.6 25.6512v153.4976c0 15.394133-10.24 25.6512-25.6 25.6512s-25.6-10.257067-25.6-25.6512v-153.4976z" fill="#8613B0" opacity=".9" p-id="16767"></path></svg>