<svg xmlns="http://www.w3.org/2000/svg" xmlns:xlink="http://www.w3.org/1999/xlink" width="24" height="24" viewBox="0 0 24 24" fill="none">
<path d="M8 13C7.448 13 7 12.553 7 12C7 11.447 7.448 11 8 11L21 11C21.552 11 22 11.447 22 12C22 12.553 21.552 13 21 13L8 13ZM11 6L21 6C21.552 6 22 5.55296 22 5C22 4.44704 21.552 4 21 4L11 4C10.448 4 10 4.44704 10 5C10 5.55296 10.448 6 11 6ZM3 20C2.448 20 2 19.553 2 19C2 18.447 2.448 18 3 18L21 18C21.552 18 22 18.447 22 19C22 19.553 21.552 20 21 20L3 20Z" fill-rule="evenodd"  fill="#41416E" >
</path>
<path d="M2.03156 10.2444C2.1716 11.1089 2.83178 11.8162 3.63872 11.9662C4.90574 12.202 5.99942 11.1732 5.99942 9.8586L5.99942 3.4288L7.33316 3.4288C7.69994 3.4288 8 3.1074 8 2.7144C8 2.3215 7.69994 2 7.33316 2L5.99942 2C5.26586 2 4.66568 2.643 4.66568 3.4288L4.66568 7.844C4.45892 7.7654 4.23224 7.7154 3.99878 7.7154C2.77178 7.7154 1.81148 8.887 2.03156 10.2444Z"   fill="#41416E" >
</path>
</svg>
