<svg xmlns="http://www.w3.org/2000/svg" xmlns:xlink="http://www.w3.org/1999/xlink" width="21.125" height="20.125" viewBox="0 0 21.125 20.125" fill="none">
<g opacity="0.9">
<path d="M13.875 9.65324C13.875 8.4721 13.6558 6.71302 12.9197 5.26995C12.1979 3.85448 11.0048 2.77505 8.99998 2.77505C6.99513 2.77505 5.80203 3.85448 5.08021 5.26995C4.34412 6.71302 4.125 8.4721 4.125 9.65324C4.125 9.82643 4.03959 9.98831 3.89685 10.0863C3.59712 10.2918 3.3329 10.4837 3.13051 10.7738C2.93685 11.0515 2.7749 11.4577 2.7749 12.121C2.7749 12.6343 2.91357 12.9996 3.14302 13.2778C3.37989 13.565 3.75019 13.8037 4.28621 13.99C5.37601 14.3686 6.98014 14.475 8.99998 14.475C10.9939 14.475 12.6031 14.2696 13.6953 13.8426C14.7765 13.4201 15.2249 12.8434 15.2249 12.121C15.2249 11.143 15.044 10.7795 14.9001 10.6104C14.8242 10.5211 14.7319 10.4536 14.6001 10.3769C14.5704 10.3598 14.532 10.3386 14.4882 10.3145C14.3745 10.2519 14.2249 10.1698 14.1031 10.0863C13.9604 9.98831 13.875 9.82643 13.875 9.65324ZM13.8552 4.79288C14.6308 6.31364 14.8866 8.08846 14.9208 9.35351C14.9243 9.35544 14.9278 9.35737 14.9313 9.35917C14.9863 9.38925 15.0491 9.42347 15.128 9.46929C15.3055 9.57251 15.5133 9.71065 15.6998 9.92993C16.0809 10.3779 16.275 11.0426 16.275 12.121C16.275 13.455 15.3637 14.3179 14.0775 14.8207C12.8022 15.3191 11.0365 15.525 8.99998 15.525C6.99004 15.525 5.2193 15.4258 3.94152 14.9818C3.29361 14.7568 2.73213 14.43 2.33302 13.9459C1.92649 13.4531 1.72498 12.8415 1.72498 12.121C1.72498 11.2698 1.93813 10.6477 2.26944 10.173C2.51708 9.81802 2.81681 9.56782 3.07842 9.37766C3.11014 8.11109 3.36432 6.3233 4.14479 4.79288C4.99785 3.12019 6.5048 1.72501 8.99998 1.72501C11.4952 1.72501 13.0021 3.12019 13.8552 4.79288Z" fill-rule="evenodd"  fill="#222628" >
</path>
<path d="M10.733 14.8959C10.7241 14.9219 10.7087 14.9636 10.6847 15.0157C10.6366 15.1209 10.5567 15.2629 10.4329 15.4044C10.1974 15.6736 9.77553 15.9751 8.99998 15.9751C8.22442 15.9751 7.80256 15.6736 7.56702 15.4044C7.44326 15.2629 7.36339 15.1209 7.31522 15.0157C7.2913 14.9636 7.27581 14.9219 7.26699 14.8959C7.2626 14.883 7.25994 14.8741 7.25872 14.87C7.25844 14.8691 7.25827 14.8684 7.25816 14.868L7.25816 14.868C7.18579 14.5896 6.90241 14.4209 6.62274 14.4908C6.34147 14.5611 6.17047 14.8462 6.24079 15.1274L6.75006 15.0001C6.24079 15.1274 6.24085 15.1277 6.2409 15.128L6.24107 15.1287L6.24146 15.13L6.24224 15.1333L6.2444 15.1413C6.24607 15.1474 6.24817 15.155 6.25078 15.1639C6.256 15.1818 6.26316 15.2051 6.27271 15.2332C6.29174 15.2893 6.32021 15.3648 6.36073 15.4532C6.44143 15.6292 6.57252 15.8622 6.77687 16.0958C7.1975 16.5765 7.90063 17.025 8.99998 17.025C10.0993 17.025 10.8024 16.5765 11.2231 16.0958C11.4274 15.8622 11.5585 15.6292 11.6392 15.4532C11.6797 15.3648 11.7082 15.2893 11.7272 15.2332C11.7368 15.2051 11.744 15.1818 11.7492 15.1639C11.7518 15.155 11.7539 15.1474 11.7556 15.1413L11.7577 15.1333L11.7585 15.13L11.7589 15.1287L11.759 15.128C11.7591 15.1277 11.7592 15.1274 11.2499 15.0001L11.7592 15.1274C11.8295 14.8462 11.6585 14.5611 11.3772 14.4908C11.0975 14.4209 10.8142 14.5896 10.7418 14.868C10.7417 14.8684 10.7415 14.8691 10.7412 14.87C10.74 14.8741 10.7373 14.883 10.733 14.8959Z" fill-rule="evenodd"  fill="#222628" >
</path>
<path d=""   fill="#222628" >
</path>
</g>
</svg>
