<svg xmlns="http://www.w3.org/2000/svg" xmlns:xlink="http://www.w3.org/1999/xlink" width="24" height="24" viewBox="0 0 24 24" fill="none">
<g opacity="0.9">
<path   fill="rgba(34, 38, 40, 1)"  d="M16.65 5.3L7.94998 5.3L7.94998 4.3L16.65 4.3L16.65 5.3ZM16.65 14.9001L7.94998 14.9001L7.94998 13.9001L16.65 13.9001L16.65 14.9001ZM16.65 4.3M16.65 4.3Q18.5195 4.3 19.8588 4.66947Q21.5 5.12219 21.5 5.99996L21 5.99996L21.5 5.99996L21.5 8.4L21 8.4L21.5 8.4L21 8.4L21.5 8.4Q21.5 9.27777 19.8588 9.73048Q18.5195 10.1 16.65 10.1L16.65 9.59995L16.65 10.1L7.94998 10.1L7.94998 9.59995L7.94998 10.1L7.94998 9.59995L7.94998 10.1Q6.08048 10.1 4.74111 9.73048Q3.09998 9.27777 3.09998 8.4L3.59998 8.4L3.09998 8.4L3.09998 5.99996L4.09998 5.99996L4.09998 8.4L4.09998 8.4Q4.09998 8.35748 4.08992 8.34393Q4.12267 8.38807 4.21496 8.44826Q4.47997 8.6211 5.00703 8.76649Q6.21588 9.09996 7.94998 9.09995L7.94998 9.09995L7.94998 9.09995L16.65 9.09995L16.65 9.09995Q18.3841 9.09996 19.5929 8.76649Q20.12 8.6211 20.385 8.44826Q20.4773 8.38807 20.51 8.34393Q20.5 8.35748 20.5 8.4L20.5 8.4L20.5 8.4L20.5 5.99996L20.5 5.99996Q20.5 6.04247 20.51 6.05603Q20.4773 6.01189 20.385 5.9517Q20.12 5.77886 19.5929 5.63347Q18.3841 5.3 16.65 5.3L16.65 4.3ZM16.65 13.9001M16.65 13.9001Q18.5195 13.9001 19.8588 14.2695Q21.5 14.7222 21.5 15.6L21 15.6L21.5 15.6L21.5 18.0001L21 18.0001L21.5 18.0001L21 18.0001L21.5 18.0001Q21.5 18.8778 19.8588 19.3305Q18.5195 19.7 16.65 19.7L16.65 19.2L16.65 19.7L7.94998 19.7L7.94998 19.2L7.94998 19.7L7.94998 19.2L7.94998 19.7Q6.08047 19.7 4.74111 19.3305Q3.09998 18.8778 3.09998 18.0001L3.59998 18.0001L3.09998 18.0001L3.09998 15.6L4.09998 15.6L4.09998 18.0001L4.09998 18.0001Q4.09998 17.9575 4.08992 17.944Q4.12267 17.9881 4.21496 18.0483Q4.47997 18.2211 5.00703 18.3665Q6.21587 18.7 7.94998 18.7L7.94998 18.7L7.94998 18.7L16.65 18.7L16.65 18.7Q18.3841 18.7 19.5929 18.3665Q20.12 18.2211 20.385 18.0483Q20.4773 17.9881 20.51 17.944Q20.5 17.9575 20.5 18.0001L20.5 18.0001L20.5 18.0001L20.5 15.6L20.5 15.6Q20.5 15.6425 20.51 15.6561Q20.4773 15.6119 20.385 15.5517Q20.12 15.3789 19.5929 15.2335Q18.3841 14.9001 16.65 14.9001L16.65 13.9001ZM3.09998 15.6M3.09998 15.6Q3.09998 14.7222 4.74111 14.2695Q6.08047 13.9001 7.94998 13.9001L7.94998 14.9001Q6.21587 14.9001 5.00703 15.2335Q4.47997 15.3789 4.21496 15.5517Q4.12267 15.6119 4.08992 15.6561Q4.09998 15.6425 4.09998 15.6L3.09998 15.6ZM3.09998 5.99996M3.09998 5.99996Q3.09998 5.12219 4.74111 4.66947Q6.08048 4.3 7.94998 4.3L7.94998 5.3Q6.21587 5.3 5.00703 5.63347Q4.47997 5.77886 4.21496 5.9517Q4.12267 6.01188 4.08992 6.05603Q4.09998 6.04247 4.09998 5.99996L3.09998 5.99996Z">
</path>
</g>
</svg>
