<svg xmlns="http://www.w3.org/2000/svg" xmlns:xlink="http://www.w3.org/1999/xlink" width="24" height="24" viewBox="0 0 24 24" fill="none">
<path   fill-rule="evenodd"  fill="#FFFFFF"  d="M16.6999 3.43604C16.9168 3.43604 17.1195 3.476 17.3079 3.55593C17.4963 3.63586 17.6619 3.74719 17.8046 3.88993C17.9473 4.03266 18.0587 4.19823 18.1386 4.38664C18.2185 4.57505 18.2585 4.77773 18.2585 4.99469L18.2585 19.0054C18.2585 19.4393 18.1072 19.8076 17.8046 20.1102C17.502 20.4128 17.1338 20.5641 16.6999 20.5641L7.34796 20.5641C6.91405 20.5641 6.54579 20.4128 6.2432 20.1102C5.9406 19.8076 5.78931 19.4393 5.78931 19.0054L5.78931 4.99469C5.78931 4.77773 5.82927 4.57505 5.9092 4.38664C5.98913 4.19823 6.10047 4.03266 6.2432 3.88993C6.38593 3.74719 6.5515 3.63586 6.73991 3.55593C6.92832 3.476 7.131 3.43604 7.34796 3.43604L16.6999 3.43604ZM10.4653 4.99469L13.5654 4.99469L13.5654 4.2068L10.4653 4.2068L10.4653 4.99469ZM12.0068 19.7762C12.2237 19.7762 12.4264 19.7362 12.6148 19.6563C12.8032 19.5764 12.9688 19.465 13.1115 19.3223C13.2543 19.1796 13.3656 19.014 13.4455 18.8256C13.5255 18.6372 13.5654 18.4345 13.5654 18.2175C13.5654 18.0006 13.5255 17.7979 13.4455 17.6095C13.3656 17.4211 13.2543 17.2584 13.1115 17.1213C12.9688 16.9843 12.8032 16.8758 12.6148 16.7959C12.4264 16.716 12.2237 16.676 12.0068 16.676C11.5729 16.676 11.2075 16.8245 10.9106 17.1213C10.6137 17.4182 10.4653 17.7836 10.4653 18.2175C10.4653 18.6515 10.6137 19.0197 10.9106 19.3223C11.2075 19.6249 11.5729 19.7762 12.0068 19.7762ZM16.6999 5.76545L7.34796 5.76545L7.34796 15.8881L16.6999 15.8881L16.6999 5.76545Z">
</path>
</svg>
