<svg xmlns="http://www.w3.org/2000/svg" xmlns:xlink="http://www.w3.org/1999/xlink" width="18" height="18" viewBox="0 0 18 18" fill="none">
<g opacity="0.9">
<path d="M14.025 9C14.025 9.28995 13.7899 9.525 13.5 9.525L4.49999 9.525C4.21004 9.525 3.97498 9.28995 3.97498 9C3.97498 8.71005 4.21004 8.475 4.49999 8.475L13.5 8.475C13.7899 8.475 14.025 8.71005 14.025 9Z"   fill="#FFFFFF" >
</path>
<path d="M9.00002 3.975C9.28997 3.975 9.52502 4.21007 9.52502 4.50001L9.52502 13.5C9.52502 13.7899 9.28997 14.025 9.00002 14.025C8.71008 14.025 8.47502 13.7899 8.47502 13.5L8.47502 4.50001C8.47502 4.21007 8.71008 3.975 9.00002 3.975Z"   fill="#FFFFFF" >
</path>
</g>
</svg>
