<svg xmlns="http://www.w3.org/2000/svg" xmlns:xlink="http://www.w3.org/1999/xlink" width="16" height="16" viewBox="0 0 16 16" fill="none">
<path     fill="url(#linear_fill_zqvbIDKRoe_0)"  d="M0 8Q0 7.80361 0.00963635 7.60746Q0.0192727 7.41131 0.0385222 7.21586Q0.0577717 7.02042 0.0865879 6.82616Q0.115404 6.63189 0.153718 6.43928Q0.192031 6.24666 0.23975 6.05616Q0.287469 5.86565 0.344477 5.67772Q0.401486 5.48979 0.467647 5.30488Q0.533809 5.11997 0.608964 4.93853Q0.684118 4.75709 0.768086 4.57956Q0.852053 4.40203 0.94463 4.22883Q1.03721 4.05563 1.13817 3.88718Q1.23914 3.71873 1.34824 3.55544Q1.45735 3.39215 1.57434 3.23441Q1.69133 3.07666 1.81592 2.92485Q1.9405 2.77304 2.07239 2.62753Q2.20428 2.48201 2.34315 2.34315Q2.48201 2.20428 2.62753 2.07239Q2.77304 1.9405 2.92485 1.81592Q3.07666 1.69133 3.23441 1.57434Q3.39215 1.45735 3.55544 1.34824Q3.71873 1.23914 3.88718 1.13817Q4.05563 1.03721 4.22883 0.94463Q4.40203 0.852053 4.57956 0.768086Q4.75709 0.684118 4.93853 0.608964Q5.11997 0.533809 5.30488 0.467647Q5.48979 0.401486 5.67772 0.344477Q5.86565 0.287469 6.05616 0.23975Q6.24666 0.192031 6.43928 0.153718Q6.63189 0.115404 6.82616 0.0865879Q7.02042 0.0577717 7.21586 0.0385222Q7.41131 0.0192727 7.60746 0.00963635Q7.80361 0 8 0Q8.19639 0 8.39254 0.00963635Q8.58869 0.0192727 8.78414 0.0385222Q8.97958 0.0577717 9.17384 0.0865879Q9.36811 0.115404 9.56072 0.153718Q9.75334 0.192031 9.94384 0.23975Q10.1343 0.287469 10.3223 0.344477Q10.5102 0.401486 10.6951 0.467647Q10.88 0.533809 11.0615 0.608964Q11.2429 0.684118 11.4204 0.768086Q11.598 0.852053 11.7712 0.94463Q11.9444 1.03721 12.1128 1.13817Q12.2813 1.23914 12.4446 1.34824Q12.6079 1.45735 12.7656 1.57434Q12.9233 1.69133 13.0751 1.81592Q13.227 1.9405 13.3725 2.07239Q13.518 2.20428 13.6569 2.34315Q13.7957 2.48201 13.9276 2.62753Q14.0595 2.77304 14.1841 2.92485Q14.3087 3.07666 14.4257 3.23441Q14.5426 3.39215 14.6518 3.55544Q14.7609 3.71873 14.8618 3.88718Q14.9628 4.05563 15.0554 4.22883Q15.1479 4.40203 15.2319 4.57956Q15.3159 4.75709 15.391 4.93853Q15.4662 5.11997 15.5324 5.30488Q15.5985 5.48979 15.6555 5.67772Q15.7125 5.86565 15.7602 6.05616Q15.808 6.24666 15.8463 6.43928Q15.8846 6.63189 15.9134 6.82616Q15.9422 7.02042 15.9615 7.21586Q15.9807 7.41131 15.9904 7.60746Q16 7.80361 16 8Q16 8.19639 15.9904 8.39254Q15.9807 8.58869 15.9615 8.78414Q15.9422 8.97958 15.9134 9.17384Q15.8846 9.36811 15.8463 9.56072Q15.808 9.75334 15.7602 9.94384Q15.7125 10.1343 15.6555 10.3223Q15.5985 10.5102 15.5324 10.6951Q15.4662 10.88 15.391 11.0615Q15.3159 11.2429 15.2319 11.4204Q15.1479 11.598 15.0554 11.7712Q14.9628 11.9444 14.8618 12.1128Q14.7609 12.2813 14.6518 12.4446Q14.5426 12.6079 14.4257 12.7656Q14.3087 12.9233 14.1841 13.0751Q14.0595 13.227 13.9276 13.3725Q13.7957 13.518 13.6569 13.6569Q13.518 13.7957 13.3725 13.9276Q13.227 14.0595 13.0751 14.1841Q12.9233 14.3087 12.7656 14.4257Q12.6079 14.5426 12.4446 14.6518Q12.2813 14.7609 12.1128 14.8618Q11.9444 14.9628 11.7712 15.0554Q11.598 15.1479 11.4204 15.2319Q11.2429 15.3159 11.0615 15.391Q10.88 15.4662 10.6951 15.5324Q10.5102 15.5985 10.3223 15.6555Q10.1343 15.7125 9.94384 15.7602Q9.75334 15.808 9.56072 15.8463Q9.36811 15.8846 9.17384 15.9134Q8.97958 15.9422 8.78414 15.9615Q8.58869 15.9807 8.39254 15.9904Q8.19639 16 8 16Q7.80361 16 7.60746 15.9904Q7.41131 15.9807 7.21586 15.9615Q7.02042 15.9422 6.82616 15.9134Q6.63189 15.8846 6.43928 15.8463Q6.24666 15.808 6.05616 15.7602Q5.86565 15.7125 5.67772 15.6555Q5.48979 15.5985 5.30488 15.5324Q5.11997 15.4662 4.93853 15.391Q4.75709 15.3159 4.57956 15.2319Q4.40203 15.1479 4.22883 15.0554Q4.05563 14.9628 3.88718 14.8618Q3.71873 14.7609 3.55544 14.6518Q3.39215 14.5426 3.23441 14.4257Q3.07666 14.3087 2.92485 14.1841Q2.77304 14.0595 2.62753 13.9276Q2.48201 13.7957 2.34315 13.6569Q2.20428 13.518 2.07239 13.3725Q1.9405 13.227 1.81592 13.0751Q1.69133 12.9233 1.57434 12.7656Q1.45735 12.6079 1.34824 12.4446Q1.23914 12.2813 1.13817 12.1128Q1.03721 11.9444 0.94463 11.7712Q0.852053 11.598 0.768086 11.4204Q0.684118 11.2429 0.608964 11.0615Q0.533809 10.88 0.467647 10.6951Q0.401486 10.5102 0.344477 10.3223Q0.287469 10.1343 0.23975 9.94384Q0.192031 9.75334 0.153718 9.56072Q0.115404 9.36811 0.0865879 9.17384Q0.0577717 8.97958 0.0385222 8.78414Q0.0192727 8.58869 0.00963635 8.39254Q0 8.19639 0 8Z">
</path>
<g opacity="0.9">
<path d="M10.836 7.72225C10.8747 7.89865 10.8747 8.08135 10.836 8.25775C10.7224 8.77619 10.1178 9.14853 8.9085 9.89314C7.59331 10.7031 6.9357 11.108 6.40302 10.952C6.22266 10.8992 6.0565 10.8063 5.91697 10.6802C5.505 10.308 5.505 9.53536 5.505 7.99C5.505 6.44464 5.505 5.67199 5.91697 5.29977C6.0565 5.17374 6.22266 5.08084 6.40302 5.02801C6.9357 4.87197 7.59331 5.27689 8.9085 6.08686C10.1178 6.83147 10.7224 7.20381 10.836 7.72225Z"   fill="#FFFFFF" >
</path>
</g>
<defs>
<linearGradient id="linear_fill_zqvbIDKRoe_0" x1="0.9793233600029421" y1="-0.6036262293591239" x2="15.376047188555715" y2="17.88693908434569" gradientUnits="userSpaceOnUse">
<stop offset="0" stop-color="#5AE1FF"  />
<stop offset="1" stop-color="#4F40FF"  />
</linearGradient>
</defs>
</svg>
