<svg xmlns="http://www.w3.org/2000/svg" xmlns:xlink="http://www.w3.org/1999/xlink" width="24" height="24" viewBox="0 0 24 24" fill="none">
<g opacity="0.9">
<path d="M20.0751 17.6718C20.2566 19.6979 18.7671 21.4902 16.7414 21.6834C16.5656 21.7001 16.3568 21.7001 16.0425 21.7001L7.70248 21.7001C7.68917 21.7001 7.67618 21.7001 7.66336 21.7001C7.37697 21.7001 7.18627 21.7001 7.02236 21.6856C5.08425 21.5135 3.61057 19.87 3.65085 17.9253C3.6543 17.761 3.67501 17.5713 3.70625 17.2868C3.70773 17.274 3.70904 17.2611 3.71052 17.248C3.71217 17.2336 3.71365 17.2195 3.71513 17.2056C3.74735 16.9119 3.76856 16.7192 3.797 16.5716C4.13846 14.7976 5.59438 13.5863 7.40147 13.5724C7.55189 13.5713 7.76611 13.587 8.09836 13.6114C8.11464 13.6126 8.13124 13.6139 8.14817 13.6151C9.31804 13.7009 10.6255 13.7703 11.7875 13.7703C13.0003 13.7703 14.3535 13.6947 15.5388 13.6039L15.5866 13.6002C15.9072 13.5755 16.1143 13.5597 16.2616 13.5601C17.9734 13.5647 19.3772 14.6425 19.8232 16.2946C19.8617 16.4367 19.8959 16.6202 19.9478 16.8993L19.9633 16.982C20.021 17.2907 20.0593 17.496 20.0751 17.6718ZM16.2579 14.9594C16.1745 14.9592 16.0292 14.9697 15.6458 14.9991C14.4439 15.0912 13.0511 15.1697 11.7875 15.1697C10.5769 15.1697 9.23124 15.0976 8.04575 15.0107C7.64823 14.9815 7.49731 14.9711 7.41215 14.9718C6.27204 14.9805 5.38707 15.7169 5.17155 16.8362C5.15544 16.92 5.14047 17.0501 5.10201 17.4005C5.06502 17.7378 5.05236 17.8603 5.05038 17.9543C5.02539 19.1631 5.94143 20.1847 7.14615 20.2917C7.2397 20.3 7.363 20.3007 7.70248 20.3007L15.9991 20.3007C16.3723 20.3007 16.5082 20.2999 16.6085 20.2903C17.8678 20.1703 18.7936 19.0561 18.6808 17.7967C18.6717 17.6963 18.6477 17.5625 18.5792 17.1958C18.5172 16.8631 18.4935 16.74 18.4718 16.6593C18.1902 15.6164 17.3383 14.9623 16.2579 14.9594Z" fill-rule="evenodd"  fill="#222628" >
</path>
<path d="M11.4286 11.7C9.14847 11.7 7.30005 9.85163 7.30005 7.57148L7.30005 7.00005C7.30005 4.40433 9.40433 2.30005 12 2.30005C14.5958 2.30005 16.7 4.40433 16.7 7.00005L16.7 7.57148C16.7 9.85163 14.8516 11.7 12.5715 11.7L11.4286 11.7ZM15.3 7.00005C15.3 5.17748 13.8226 3.70008 12 3.70008C10.1775 3.70008 8.70008 5.17748 8.70008 7.00005L8.70008 7.57148C8.70008 9.07839 9.92171 10.3 11.4286 10.3L12.5715 10.3C14.0784 10.3 15.3 9.07839 15.3 7.57148L15.3 7.00005Z" fill-rule="evenodd"  fill="#222628" >
</path>
</g>
</svg>
