<svg xmlns="http://www.w3.org/2000/svg" xmlns:xlink="http://www.w3.org/1999/xlink" width="24" height="24" viewBox="0 0 24 24" fill="none">
<path    stroke="rgba(65, 65, 110, 1)" stroke-width="2" stroke-linejoin="round" stroke-linecap="round"  d="M13 11C13 7.6751 15.6981 5 19 5L22 5">
</path>
<path    stroke="rgba(65, 65, 110, 1)" stroke-width="2" stroke-linejoin="round" stroke-linecap="round"  d="M19 2L22 5L19 8">
</path>
<path   fill="rgba(65, 65, 110, 1)"  d="M22 12C22 17.5228 17.5228 22 12 22C6.47715 22 2 17.5228 2 12C2 6.47715 6.47715 2 12 2Q12.0985 2 12.1951 2.01921Q12.2917 2.03843 12.3827 2.07612Q12.4737 2.11381 12.5556 2.16853Q12.6375 2.22325 12.7071 2.29289Q12.7767 2.36254 12.8315 2.44443Q12.8862 2.52632 12.9239 2.61732Q12.9616 2.70831 12.9808 2.80491Q13 2.90151 13 3Q13 3.09849 12.9808 3.19509Q12.9616 3.29169 12.9239 3.38268Q12.8862 3.47368 12.8315 3.55557Q12.7767 3.63746 12.7071 3.70711Q12.6375 3.77675 12.5556 3.83147Q12.4737 3.88619 12.3827 3.92388Q12.2917 3.96157 12.1951 3.98078Q12.0985 4 12 4C7.58172 4 4 7.58172 4 12C4 16.4183 7.58172 20 12 20C16.4183 20 20 16.4183 20 12Q20 11.9015 20.0192 11.8049Q20.0384 11.7083 20.0761 11.6173Q20.1138 11.5263 20.1685 11.4444Q20.2232 11.3625 20.2929 11.2929Q20.3625 11.2232 20.4444 11.1685Q20.5263 11.1138 20.6173 11.0761Q20.7083 11.0384 20.8049 11.0192Q20.9015 11 21 11Q21.0985 11 21.1951 11.0192Q21.2917 11.0384 21.3827 11.0761Q21.4737 11.1138 21.5556 11.1685Q21.6375 11.2232 21.7071 11.2929Q21.7767 11.3625 21.8315 11.4444Q21.8862 11.5263 21.9239 11.6173Q21.9616 11.7083 21.9808 11.8049Q22 11.9015 22 12Z">
</path>
</svg>
