<svg xmlns="http://www.w3.org/2000/svg" xmlns:xlink="http://www.w3.org/1999/xlink" width="24" height="24" viewBox="0 0 24 24" fill="none">
<path d="M17 12C18.93 12 20.5 10.43 20.5 8.5C20.5 6.92 19.4411 5.597 18 5.163L18 3C18 2.448 17.5531 2 17 2C16.447 2 15.9999 2.448 15.9999 3L15.9999 5.163C14.559 5.597 13.5001 6.92 13.5001 8.5C13.5001 10.43 15.07 12 17 12ZM8.00007 21L8.00007 18.837C9.44099 18.403 10.4999 17.08 10.4999 15.5C10.4999 13.57 8.92997 12 6.99996 12C5.06995 12 3.5 13.57 3.5 15.5C3.5 17.08 4.55893 18.403 6.00002 18.837L6.00002 21C6.00002 21.552 6.44695 22 6.99996 22C7.55297 22 8.00007 21.552 8.00007 21ZM8.50004 15.5C8.50004 16.327 7.82701 17 6.99996 17C6.17308 17 5.50005 16.327 5.50005 15.5C5.50005 14.673 6.17308 14 6.99996 14C7.82701 14 8.50004 14.673 8.50004 15.5ZM6.99996 2C7.55297 2 8.00007 2.448 8.00007 3L8.00007 9C8.00007 9.552 7.55297 10 6.99996 10C6.44695 10 6.00002 9.552 6.00002 9L6.00002 3C6.00002 2.448 6.44695 2 6.99996 2ZM17 22C16.447 22 15.9999 21.552 15.9999 21L15.9999 15C15.9999 14.448 16.447 14 17 14C17.5531 14 18 14.448 18 15L18 21C18 21.552 17.5531 22 17 22ZM17 7C17.8269 7 18.5 7.673 18.5 8.5C18.5 9.327 17.8269 10 17 10C16.173 10 15.5 9.327 15.5 8.5C15.5 7.673 16.173 7 17 7Z" fill-rule="evenodd"  fill="#41416E" >
</path>
</svg>
