<svg xmlns="http://www.w3.org/2000/svg" xmlns:xlink="http://www.w3.org/1999/xlink" width="24" height="24" viewBox="0 0 24 24" fill="none">
<g opacity="0.9">
<path fill-rule="evenodd"  fill="rgba(34, 38, 40, 1)"  d="M10.31 15.36C10.1081 15.3009 9.91623 15.201 9.76005 15.06C9.30004 14.6447 9.30005 13.7829 9.30005 12.063L9.30005 12.037C9.30005 10.3171 9.30004 9.45529 9.76005 9.03999C9.91623 8.89903 10.1081 8.79909 10.31 8.73999C10.9063 8.56546 11.6378 9.01402 13.11 9.91999C14.4637 10.7529 15.1428 11.1701 15.27 11.75C15.3133 11.9473 15.3133 12.1527 15.27 12.35C15.1428 12.9299 14.4637 13.3471 13.11 14.18C11.6378 15.086 10.9063 15.5345 10.31 15.36ZM10.6013 14.1911Q10.7004 14.1679 10.879 14.0855Q11.2578 13.9108 12.4812 13.158L12.4837 13.1564L12.4862 13.1549Q13.6078 12.4648 13.9062 12.2284Q14.0428 12.1202 14.1026 12.0508L14.1026 12.0492Q14.0428 11.9798 13.9062 11.8715Q13.6078 11.6352 12.4862 10.9451L12.4837 10.9436L12.4811 10.942Q11.2578 10.1892 10.879 10.0145Q10.7004 9.93211 10.6013 9.90892Q10.5713 10.0056 10.5491 10.1913Q10.5 10.6029 10.5 12.037L10.5 12.063Q10.5 13.4971 10.5491 13.9087Q10.5713 14.0944 10.6013 14.1911Z">
</path>
<g opacity="0.9">
<path fill-rule="evenodd"  fill="rgba(34, 38, 40, 1)"  d="M16 4L8 4C5.23858 4 3 6.23858 3 9L3 15C3 17.7614 5.23858 20 8 20L16 20C18.7614 20 21 17.7614 21 15L21 9C21 6.23858 18.7614 4 16 4ZM4 9C4 6.79086 5.79086 5 8 5L16 5C18.2091 5 20 6.79086 20 9L20 15C20 17.2091 18.2091 19 16 19L8 19C5.79086 19 4 17.2091 4 15L4 9Z">
</path>
</g>
</g>
</svg>
