<svg xmlns="http://www.w3.org/2000/svg" xmlns:xlink="http://www.w3.org/1999/xlink" width="24" height="24" viewBox="0 0 24 24" fill="none">
<path     fill="#222628"  d="M2.10001 8.81005C0.792012 12.4181 1.07217 16.8197 1.68001 20.13C1.75001 20.5104 2.1197 20.7598 2.50001 20.69C2.88011 20.6201 3.12979 20.2502 3.06001 19.87C2.46734 16.642 2.22922 12.5472 3.41001 9.29005C3.99489 7.67637 4.92028 6.29353 6.30001 5.31005C7.67866 4.32767 9.56763 3.70005 12.16 3.70005C14.753 3.70005 16.6197 4.32227 17.96 5.30005C19.3014 6.27856 20.1796 7.65766 20.72 9.27005C21.812 12.528 21.4853 16.6283 20.89 19.87C20.8202 20.2502 21.0699 20.6201 21.45 20.69C21.8303 20.7598 22.2002 20.5104 22.27 20.13C22.8753 16.8333 23.2592 12.4376 22.05 8.83005C21.44 7.00992 20.4174 5.3574 18.79 4.17005C17.1615 2.98196 14.983 2.30005 12.16 2.30005C9.33685 2.30005 7.1508 2.98674 5.49001 4.17005C3.83074 5.35262 2.75921 6.99102 2.10001 8.81005">
</path>
<path     fill="#222628"  d="M3 20C3 21.6568 4.34316 23 6 23C7.65684 23 9 21.6568 9 20L9 17C9 15.3432 7.65684 14 6 14C4.34316 14 3 15.3432 3 17L3 20">
</path>
<path   fill-rule="evenodd"  fill="#222628"  d="M8.5 17C8.5 15.6193 7.38068 14.5 6 14.5C4.61932 14.5 3.5 15.6193 3.5 17L3.5 20C3.5 21.3807 4.61932 22.5 6 22.5C7.38068 22.5 8.5 21.3807 8.5 20L8.5 17M9.5 17C9.5 15.067 7.93298 13.5 6 13.5C4.06702 13.5 2.5 15.067 2.5 17L2.5 20C2.5 21.933 4.06702 23.5 6 23.5C7.93298 23.5 9.5 21.933 9.5 20L9.5 17">
</path>
<path     fill="#222628"  d="M15 20C15 21.6568 16.3432 23 18 23C19.6568 23 21 21.6568 21 20L21 17C21 15.3432 19.6568 14 18 14C16.3432 14 15 15.3432 15 17L15 20">
</path>
<path   fill-rule="evenodd"  fill="#222628"  d="M15.5 17L15.5 20C15.5 21.3807 16.6193 22.5 18 22.5C19.3807 22.5 20.5 21.3807 20.5 20L20.5 17C20.5 15.6193 19.3807 14.5 18 14.5C16.6193 14.5 15.5 15.6193 15.5 17M14.5 17L14.5 20C14.5 21.933 16.067 23.5 18 23.5C19.933 23.5 21.5 21.933 21.5 20L21.5 17C21.5 15.067 19.933 13.5 18 13.5C16.067 13.5 14.5 15.067 14.5 17">
</path>
</svg>
