<svg xmlns="http://www.w3.org/2000/svg" xmlns:xlink="http://www.w3.org/1999/xlink" width="24" height="24" viewBox="0 0 24 24" fill="none">
<path   fill-rule="evenodd"  fill="#FFFFFF"  d="M9.17946 4.13477C5.42171 4.13477 2.34375 6.69613 2.34375 9.94841C2.34375 11.8258 3.36792 13.3669 5.07851 14.5608L4.39481 16.6176L6.78427 15.4189C7.63956 15.5886 8.32535 15.7624 9.17854 15.7624C9.39296 15.7624 9.60589 15.7518 9.81669 15.7349C9.68339 15.2774 9.60589 14.7991 9.60589 14.3027C9.60589 11.3179 12.1706 8.89437 15.4177 8.89437C15.6391 8.89437 15.8583 8.91065 16.0761 8.93478C15.4847 6.181 12.5406 4.13477 9.17946 4.13477ZM6.95889 8.7499C6.4468 8.7499 5.92959 8.4067 5.92959 7.89432C5.92959 7.37981 6.4468 7.04144 6.95889 7.04144C7.47097 7.04144 7.81237 7.38013 7.81237 7.89432C7.81207 8.4067 7.47097 8.74992 6.95889 8.7499ZM11.7429 8.7499C11.2305 8.7499 10.7163 8.4067 10.7163 7.89432C10.7163 7.37981 11.2305 7.04144 11.7429 7.04144C12.2577 7.04144 12.5985 7.38013 12.5985 7.89432C12.5985 8.4067 12.2574 8.74992 11.7429 8.7499ZM21.6569 14.2209C21.6569 11.4898 18.9221 9.26231 15.8508 9.26231C12.5985 9.26231 10.0368 11.4898 10.0368 14.2209C10.0368 16.9581 12.5985 19.1811 15.8508 19.1811C16.5315 19.1811 17.2176 19.0098 17.9016 18.8382L19.7768 19.8648L19.2626 18.1563C20.6345 17.1276 21.6569 15.7627 21.6569 14.2209ZM13.9656 13.3669C13.6251 13.3669 13.2816 13.0288 13.2816 12.6835C13.2816 12.3424 13.6251 11.9992 13.9656 11.9992C14.4828 11.9992 14.8212 12.3424 14.8212 12.6835C14.8212 13.0288 14.4828 13.3669 13.9656 13.3669ZM17.7257 13.3669C17.3877 13.3669 17.0466 13.0288 17.0466 12.6835C17.0466 12.3424 17.3877 11.9992 17.7257 11.9992C18.2378 11.9992 18.5813 12.3424 18.5813 12.6835C18.5813 13.0288 18.2378 13.3669 17.7257 13.3669Z">
</path>
</svg>
