<svg xmlns="http://www.w3.org/2000/svg" xmlns:xlink="http://www.w3.org/1999/xlink" width="46" height="46" viewBox="0 0 46 46" fill="none">
<path     fill="#27C444"  d="M0 23Q0 22.4354 0.0277045 21.8714Q0.055409 21.3075 0.110751 20.7456Q0.166094 20.1837 0.24894 19.6252Q0.331787 19.0667 0.441938 18.5129Q0.55209 17.9592 0.689281 17.4115Q0.826472 16.8638 0.990372 16.3235Q1.15427 15.7831 1.34449 15.2515Q1.5347 14.7199 1.75077 14.1983Q1.96684 13.6766 2.20825 13.1662Q2.44965 12.6558 2.71581 12.1579Q2.98197 11.6599 3.27224 11.1756Q3.56251 10.6913 3.8762 10.2219Q4.18988 9.75242 4.52623 9.29891Q4.86257 8.84541 5.22076 8.40895Q5.57895 7.9725 5.95812 7.55414Q6.3373 7.13579 6.73654 6.73654Q7.13579 6.3373 7.55414 5.95812Q7.9725 5.57895 8.40895 5.22076Q8.84541 4.86257 9.29891 4.52623Q9.75242 4.18988 10.2219 3.8762Q10.6913 3.56251 11.1756 3.27224Q11.6599 2.98197 12.1579 2.71581Q12.6558 2.44965 13.1662 2.20825Q13.6766 1.96684 14.1983 1.75077Q14.7199 1.5347 15.2515 1.34449Q15.7831 1.15427 16.3235 0.990372Q16.8638 0.826472 17.4115 0.689281Q17.9592 0.55209 18.5129 0.441938Q19.0667 0.331787 19.6252 0.24894Q20.1837 0.166094 20.7456 0.110751Q21.3075 0.055409 21.8714 0.0277045Q22.4354 0 23 0Q23.5646 0 24.1286 0.0277045Q24.6925 0.055409 25.2544 0.110751Q25.8163 0.166094 26.3748 0.24894Q26.9333 0.331787 27.4871 0.441938Q28.0408 0.55209 28.5885 0.689281Q29.1362 0.826472 29.6765 0.990372Q30.2169 1.15427 30.7485 1.34449Q31.2801 1.5347 31.8017 1.75077Q32.3234 1.96684 32.8338 2.20825Q33.3442 2.44965 33.8421 2.71581Q34.3401 2.98197 34.8244 3.27224Q35.3087 3.56251 35.7781 3.8762Q36.2476 4.18988 36.7011 4.52623Q37.1546 4.86257 37.591 5.22076Q38.0275 5.57895 38.4459 5.95812Q38.8642 6.3373 39.2635 6.73654Q39.6627 7.13579 40.0419 7.55414Q40.4211 7.9725 40.7792 8.40895Q41.1374 8.84541 41.4738 9.29891Q41.8101 9.75242 42.1238 10.2219Q42.4375 10.6913 42.7278 11.1756Q43.018 11.6599 43.2842 12.1579Q43.5504 12.6558 43.7918 13.1662Q44.0332 13.6766 44.2492 14.1983Q44.4653 14.7199 44.6555 15.2515Q44.8457 15.7831 45.0096 16.3235Q45.1735 16.8638 45.3107 17.4115Q45.4479 17.9592 45.5581 18.5129Q45.6682 19.0667 45.7511 19.6252Q45.8339 20.1837 45.8893 20.7456Q45.9446 21.3075 45.9723 21.8714Q46 22.4354 46 23Q46 23.5646 45.9723 24.1286Q45.9446 24.6925 45.8893 25.2544Q45.8339 25.8163 45.7511 26.3748Q45.6682 26.9333 45.5581 27.4871Q45.4479 28.0408 45.3107 28.5885Q45.1735 29.1362 45.0096 29.6765Q44.8457 30.2169 44.6555 30.7485Q44.4653 31.2801 44.2492 31.8017Q44.0332 32.3234 43.7918 32.8338Q43.5503 33.3442 43.2842 33.8421Q43.018 34.3401 42.7278 34.8244Q42.4375 35.3087 42.1238 35.7781Q41.8101 36.2476 41.4738 36.7011Q41.1374 37.1546 40.7792 37.591Q40.421 38.0275 40.0419 38.4459Q39.6627 38.8642 39.2635 39.2635Q38.8642 39.6627 38.4459 40.0419Q38.0275 40.4211 37.591 40.7792Q37.1546 41.1374 36.7011 41.4738Q36.2476 41.8101 35.7781 42.1238Q35.3087 42.4375 34.8244 42.7278Q34.3401 43.018 33.8421 43.2842Q33.3442 43.5504 32.8338 43.7918Q32.3234 44.0332 31.8017 44.2492Q31.2801 44.4653 30.7485 44.6555Q30.2169 44.8457 29.6765 45.0096Q29.1362 45.1735 28.5885 45.3107Q28.0408 45.4479 27.4871 45.5581Q26.9333 45.6682 26.3748 45.7511Q25.8163 45.8339 25.2544 45.8893Q24.6925 45.9446 24.1286 45.9723Q23.5646 46 23 46Q22.4354 46 21.8714 45.9723Q21.3075 45.9446 20.7456 45.8893Q20.1837 45.8339 19.6252 45.7511Q19.0667 45.6682 18.5129 45.5581Q17.9592 45.4479 17.4115 45.3107Q16.8638 45.1735 16.3235 45.0096Q15.7831 44.8457 15.2515 44.6555Q14.7199 44.4653 14.1983 44.2492Q13.6766 44.0332 13.1662 43.7918Q12.6558 43.5503 12.1579 43.2842Q11.6599 43.018 11.1756 42.7278Q10.6913 42.4375 10.2219 42.1238Q9.75242 41.8101 9.29891 41.4738Q8.84541 41.1374 8.40895 40.7792Q7.9725 40.421 7.55414 40.0419Q7.13579 39.6627 6.73654 39.2635Q6.3373 38.8642 5.95812 38.4459Q5.57895 38.0275 5.22076 37.591Q4.86257 37.1546 4.52623 36.7011Q4.18988 36.2476 3.8762 35.7781Q3.56251 35.3087 3.27224 34.8244Q2.98197 34.3401 2.71581 33.8421Q2.44965 33.3442 2.20825 32.8338Q1.96684 32.3234 1.75077 31.8017Q1.5347 31.2801 1.34449 30.7485Q1.15427 30.2169 0.990372 29.6765Q0.826472 29.1362 0.689281 28.5885Q0.55209 28.0408 0.441938 27.4871Q0.331787 26.9333 0.24894 26.3748Q0.166094 25.8163 0.110751 25.2544Q0.055409 24.6925 0.0277045 24.1286Q0 23.5646 0 23Z">
</path>
<path d="M14.9237 28.3843C16.1867 28.6835 17.2503 28.9493 18.5798 28.9493C18.9122 28.9493 19.2778 28.9161 19.6101 28.8829C19.4107 28.1517 19.2778 27.4204 19.2778 26.656C19.2778 22.0028 23.1997 18.247 28.1853 18.1806C28.5177 18.1806 28.85 18.2138 29.1824 18.247C28.285 13.9595 23.7315 10.7687 18.5798 10.7687C12.8298 10.7687 8.0769 14.7571 8.0769 19.8424C8.0769 22.734 9.67228 25.1603 12.298 27.0216L11.2677 30.2456L14.9237 28.3843ZM13.5608 16.6848C13.5608 15.8871 14.3585 15.3553 15.1562 15.3553C15.9539 15.3553 16.4857 15.8539 16.4857 16.6848C16.4857 17.4825 15.9539 18.0142 15.1562 18.0142C14.3585 18.0142 13.5608 17.4825 13.5608 16.6848ZM23.8642 16.6848C23.8642 17.4492 23.3324 18.0142 22.5348 18.0142C21.7371 18.0142 20.9394 17.4825 20.9394 16.6848C20.9394 15.8871 21.7371 15.3553 22.5348 15.3553C23.3324 15.3553 23.8642 15.8871 23.8642 16.6848ZM34.9324 35.3309L34.1347 32.6719C36.2287 31.0765 37.7908 28.9493 37.7908 26.5563C37.7908 22.3019 33.6029 18.8121 28.85 18.8121C23.8645 18.8121 19.9093 22.2687 19.9425 26.523C19.9425 30.8106 23.8977 34.2673 28.9165 34.2673C29.9801 34.2673 31.0437 34.0014 32.074 33.7355L34.9324 35.3309ZM24.9278 24.1298C24.9278 23.6313 25.4264 23.0662 25.9582 23.0662C26.7558 23.0662 27.2876 23.598 27.2876 24.1298C27.2876 24.6616 26.7558 25.1934 25.9582 25.1934C25.4596 25.1934 24.9278 24.6949 24.9278 24.1298ZM30.711 24.1298C30.711 23.6313 31.2096 23.0662 31.7414 23.0662C32.539 23.0662 33.0708 23.598 33.0708 24.1298C33.0708 24.6616 32.539 25.1934 31.7414 25.1934C31.2428 25.1934 30.711 24.6949 30.711 24.1298Z" fill-rule="evenodd"  fill="#FFFFFF" >
</path>
</svg>
